%TF.GenerationSoftware,KiCad,Pcbnew,7.0.9*%
%TF.CreationDate,2024-09-22T22:34:36+04:00*%
%TF.ProjectId,LDO_Module,4c444f5f-4d6f-4647-956c-652e6b696361,1*%
%TF.SameCoordinates,Original*%
%TF.FileFunction,Copper,L2,Bot*%
%TF.FilePolarity,Positive*%
%FSLAX46Y46*%
G04 Gerber Fmt 4.6, Leading zero omitted, Abs format (unit mm)*
G04 Created by KiCad (PCBNEW 7.0.9) date 2024-09-22 22:34:36*
%MOMM*%
%LPD*%
G01*
G04 APERTURE LIST*
G04 Aperture macros list*
%AMRoundRect*
0 Rectangle with rounded corners*
0 $1 Rounding radius*
0 $2 $3 $4 $5 $6 $7 $8 $9 X,Y pos of 4 corners*
0 Add a 4 corners polygon primitive as box body*
4,1,4,$2,$3,$4,$5,$6,$7,$8,$9,$2,$3,0*
0 Add four circle primitives for the rounded corners*
1,1,$1+$1,$2,$3*
1,1,$1+$1,$4,$5*
1,1,$1+$1,$6,$7*
1,1,$1+$1,$8,$9*
0 Add four rect primitives between the rounded corners*
20,1,$1+$1,$2,$3,$4,$5,0*
20,1,$1+$1,$4,$5,$6,$7,0*
20,1,$1+$1,$6,$7,$8,$9,0*
20,1,$1+$1,$8,$9,$2,$3,0*%
G04 Aperture macros list end*
%TA.AperFunction,ComponentPad*%
%ADD10RoundRect,0.250000X-0.750000X0.600000X-0.750000X-0.600000X0.750000X-0.600000X0.750000X0.600000X0*%
%TD*%
%TA.AperFunction,ComponentPad*%
%ADD11O,2.000000X1.700000*%
%TD*%
%TA.AperFunction,ComponentPad*%
%ADD12RoundRect,0.250000X0.750000X-0.600000X0.750000X0.600000X-0.750000X0.600000X-0.750000X-0.600000X0*%
%TD*%
%TA.AperFunction,ViaPad*%
%ADD13C,0.800000*%
%TD*%
G04 APERTURE END LIST*
D10*
%TO.P,J2,1,Pin_1*%
%TO.N,/VOUT*%
X140330000Y-76870000D03*
D11*
%TO.P,J2,2,Pin_2*%
%TO.N,GND*%
X140330000Y-79370000D03*
%TD*%
D12*
%TO.P,J1,1,Pin_1*%
%TO.N,GND*%
X114862500Y-79540000D03*
D11*
%TO.P,J1,2,Pin_2*%
%TO.N,/VIN*%
X114862500Y-77040000D03*
%TD*%
D13*
%TO.N,GND*%
X105690000Y-82290000D03*
X130030000Y-86010000D03*
X124480000Y-86800000D03*
X116060000Y-86010000D03*
X110940000Y-84730000D03*
X106790000Y-85460000D03*
X120880000Y-84180000D03*
X140280000Y-84420000D03*
X145890000Y-84970000D03*
X150100000Y-81500000D03*
X129420000Y-72610000D03*
%TD*%
%TA.AperFunction,Conductor*%
%TO.N,GND*%
G36*
X152178539Y-68624185D02*
G01*
X152224294Y-68676989D01*
X152235500Y-68728500D01*
X152235500Y-87971500D01*
X152215815Y-88038539D01*
X152163011Y-88084294D01*
X152111500Y-88095500D01*
X102868500Y-88095500D01*
X102801461Y-88075815D01*
X102755706Y-88023011D01*
X102744500Y-87971500D01*
X102744500Y-77090936D01*
X113708131Y-77090936D01*
X113738942Y-77292063D01*
X113738945Y-77292075D01*
X113809611Y-77482881D01*
X113809613Y-77482884D01*
X113809614Y-77482887D01*
X113855505Y-77556513D01*
X113917245Y-77655567D01*
X113917249Y-77655572D01*
X114052680Y-77798045D01*
X114057441Y-77803053D01*
X114185844Y-77892424D01*
X114224449Y-77919294D01*
X114224450Y-77919294D01*
X114224451Y-77919295D01*
X114411442Y-77999540D01*
X114610759Y-78040500D01*
X115063243Y-78040500D01*
X115214939Y-78025074D01*
X115409079Y-77964162D01*
X115409080Y-77964161D01*
X115409088Y-77964159D01*
X115587002Y-77865409D01*
X115741395Y-77732866D01*
X115865948Y-77571958D01*
X115900501Y-77501517D01*
X139179500Y-77501517D01*
X139190292Y-77569657D01*
X139194354Y-77595304D01*
X139251950Y-77708342D01*
X139251952Y-77708344D01*
X139251954Y-77708347D01*
X139341652Y-77798045D01*
X139341654Y-77798046D01*
X139341658Y-77798050D01*
X139454694Y-77855645D01*
X139454698Y-77855647D01*
X139548475Y-77870499D01*
X139548481Y-77870500D01*
X141111518Y-77870499D01*
X141205304Y-77855646D01*
X141318342Y-77798050D01*
X141408050Y-77708342D01*
X141465646Y-77595304D01*
X141465646Y-77595302D01*
X141465647Y-77595301D01*
X141480499Y-77501524D01*
X141480500Y-77501519D01*
X141480499Y-76238482D01*
X141465646Y-76144696D01*
X141408050Y-76031658D01*
X141408046Y-76031654D01*
X141408045Y-76031652D01*
X141318347Y-75941954D01*
X141318344Y-75941952D01*
X141318342Y-75941950D01*
X141241517Y-75902805D01*
X141205301Y-75884352D01*
X141111524Y-75869500D01*
X139548482Y-75869500D01*
X139467519Y-75882323D01*
X139454696Y-75884354D01*
X139341658Y-75941950D01*
X139341657Y-75941951D01*
X139341652Y-75941954D01*
X139251954Y-76031652D01*
X139251951Y-76031657D01*
X139251950Y-76031658D01*
X139240095Y-76054925D01*
X139194352Y-76144698D01*
X139179500Y-76238475D01*
X139179500Y-77501517D01*
X115900501Y-77501517D01*
X115955560Y-77389271D01*
X116006563Y-77192285D01*
X116016869Y-76989064D01*
X115986056Y-76787929D01*
X115915386Y-76597113D01*
X115807752Y-76424429D01*
X115667559Y-76276947D01*
X115569087Y-76208409D01*
X115500550Y-76160705D01*
X115313556Y-76080459D01*
X115114241Y-76039500D01*
X114661758Y-76039500D01*
X114661757Y-76039500D01*
X114510060Y-76054925D01*
X114315920Y-76115837D01*
X114315905Y-76115844D01*
X114138000Y-76214589D01*
X114137995Y-76214592D01*
X113983606Y-76347132D01*
X113983604Y-76347134D01*
X113859054Y-76508037D01*
X113859053Y-76508040D01*
X113769440Y-76690728D01*
X113718437Y-76887714D01*
X113708131Y-77090936D01*
X102744500Y-77090936D01*
X102744500Y-68728500D01*
X102764185Y-68661461D01*
X102816989Y-68615706D01*
X102868500Y-68604500D01*
X152111500Y-68604500D01*
X152178539Y-68624185D01*
G37*
%TD.AperFunction*%
%TD*%
M02*
