%TF.GenerationSoftware,KiCad,Pcbnew,7.0.9*%
%TF.CreationDate,2024-09-22T22:34:36+04:00*%
%TF.ProjectId,LDO_Module,4c444f5f-4d6f-4647-956c-652e6b696361,1*%
%TF.SameCoordinates,Original*%
%TF.FileFunction,Copper,L1,Top*%
%TF.FilePolarity,Positive*%
%FSLAX46Y46*%
G04 Gerber Fmt 4.6, Leading zero omitted, Abs format (unit mm)*
G04 Created by KiCad (PCBNEW 7.0.9) date 2024-09-22 22:34:36*
%MOMM*%
%LPD*%
G01*
G04 APERTURE LIST*
G04 Aperture macros list*
%AMRoundRect*
0 Rectangle with rounded corners*
0 $1 Rounding radius*
0 $2 $3 $4 $5 $6 $7 $8 $9 X,Y pos of 4 corners*
0 Add a 4 corners polygon primitive as box body*
4,1,4,$2,$3,$4,$5,$6,$7,$8,$9,$2,$3,0*
0 Add four circle primitives for the rounded corners*
1,1,$1+$1,$2,$3*
1,1,$1+$1,$4,$5*
1,1,$1+$1,$6,$7*
1,1,$1+$1,$8,$9*
0 Add four rect primitives between the rounded corners*
20,1,$1+$1,$2,$3,$4,$5,0*
20,1,$1+$1,$4,$5,$6,$7,0*
20,1,$1+$1,$6,$7,$8,$9,0*
20,1,$1+$1,$8,$9,$2,$3,0*%
G04 Aperture macros list end*
%TA.AperFunction,SMDPad,CuDef*%
%ADD10RoundRect,0.249999X-1.450001X0.450001X-1.450001X-0.450001X1.450001X-0.450001X1.450001X0.450001X0*%
%TD*%
%TA.AperFunction,SMDPad,CuDef*%
%ADD11R,1.500000X2.000000*%
%TD*%
%TA.AperFunction,SMDPad,CuDef*%
%ADD12R,3.800000X2.000000*%
%TD*%
%TA.AperFunction,ComponentPad*%
%ADD13RoundRect,0.250000X-0.750000X0.600000X-0.750000X-0.600000X0.750000X-0.600000X0.750000X0.600000X0*%
%TD*%
%TA.AperFunction,ComponentPad*%
%ADD14O,2.000000X1.700000*%
%TD*%
%TA.AperFunction,ComponentPad*%
%ADD15RoundRect,0.250000X0.750000X-0.600000X0.750000X0.600000X-0.750000X0.600000X-0.750000X-0.600000X0*%
%TD*%
%TA.AperFunction,ViaPad*%
%ADD16C,0.800000*%
%TD*%
%TA.AperFunction,Conductor*%
%ADD17C,0.250000*%
%TD*%
%TA.AperFunction,Conductor*%
%ADD18C,1.000000*%
%TD*%
G04 APERTURE END LIST*
D10*
%TO.P,C2,1*%
%TO.N,/VOUT*%
X134570000Y-76170000D03*
%TO.P,C2,2*%
%TO.N,GND*%
X134570000Y-80270000D03*
%TD*%
%TO.P,C1,1*%
%TO.N,/VIN*%
X119740000Y-76310000D03*
%TO.P,C1,2*%
%TO.N,GND*%
X119740000Y-80410000D03*
%TD*%
D11*
%TO.P,U2,1,GND*%
%TO.N,GND*%
X129410000Y-75070000D03*
D12*
%TO.P,U2,2,VO*%
%TO.N,/VOUT*%
X127110000Y-81370000D03*
D11*
X127110000Y-75070000D03*
%TO.P,U2,3,VI*%
%TO.N,/VIN*%
X124810000Y-75070000D03*
%TD*%
D13*
%TO.P,J2,1,Pin_1*%
%TO.N,/VOUT*%
X140330000Y-76870000D03*
D14*
%TO.P,J2,2,Pin_2*%
%TO.N,GND*%
X140330000Y-79370000D03*
%TD*%
D15*
%TO.P,J1,1,Pin_1*%
%TO.N,GND*%
X114862500Y-79540000D03*
D14*
%TO.P,J1,2,Pin_2*%
%TO.N,/VIN*%
X114862500Y-77040000D03*
%TD*%
D16*
%TO.N,GND*%
X105690000Y-82290000D03*
X130030000Y-86010000D03*
X124480000Y-86800000D03*
X116060000Y-86010000D03*
X110940000Y-84730000D03*
X106790000Y-85460000D03*
X120880000Y-84180000D03*
X140280000Y-84420000D03*
X145890000Y-84970000D03*
X150100000Y-81500000D03*
X129420000Y-72610000D03*
%TD*%
D17*
%TO.N,GND*%
X129410000Y-72620000D02*
X129420000Y-72610000D01*
D18*
X129410000Y-75070000D02*
X129410000Y-72620000D01*
%TD*%
%TA.AperFunction,Conductor*%
%TO.N,/VIN*%
G36*
X125334526Y-68624185D02*
G01*
X125380281Y-68676989D01*
X125391487Y-68728702D01*
X125384505Y-73016033D01*
X125371513Y-75090477D01*
X125371292Y-75125768D01*
X125357094Y-77392573D01*
X125338850Y-77456543D01*
X125036277Y-77950747D01*
X124984484Y-77997643D01*
X124930523Y-78010000D01*
X124010000Y-78010000D01*
X114810000Y-78020000D01*
X102869179Y-78085338D01*
X102802032Y-78066021D01*
X102755989Y-78013468D01*
X102744500Y-77961340D01*
X102744500Y-68728500D01*
X102764185Y-68661461D01*
X102816989Y-68615706D01*
X102868500Y-68604500D01*
X125267487Y-68604500D01*
X125334526Y-68624185D01*
G37*
%TD.AperFunction*%
%TD*%
%TA.AperFunction,Conductor*%
%TO.N,/VOUT*%
G36*
X152178539Y-68624185D02*
G01*
X152224294Y-68676989D01*
X152235500Y-68728500D01*
X152235500Y-77228620D01*
X152215815Y-77295659D01*
X152163011Y-77341414D01*
X152111599Y-77352620D01*
X142910000Y-77360000D01*
X142596785Y-77691112D01*
X142536415Y-77726287D01*
X142506471Y-77729899D01*
X131880000Y-77710000D01*
X131879999Y-77710000D01*
X131250000Y-78250000D01*
X131250000Y-82485113D01*
X131230315Y-82552152D01*
X131177511Y-82597907D01*
X131125117Y-82609110D01*
X124352726Y-82560874D01*
X124285828Y-82540712D01*
X124240451Y-82487584D01*
X124229610Y-82437271D01*
X124220163Y-79461590D01*
X124239634Y-79394491D01*
X124256472Y-79373527D01*
X124413683Y-79216316D01*
X124475004Y-79182834D01*
X124501362Y-79180000D01*
X125750000Y-79180000D01*
X126110000Y-78820000D01*
X126110000Y-78208833D01*
X126129685Y-78141794D01*
X126132150Y-78138104D01*
X126359999Y-77810001D01*
X126359998Y-77810001D01*
X126360000Y-77810000D01*
X126376772Y-75132065D01*
X127909500Y-75132065D01*
X127924890Y-75317813D01*
X127924892Y-75317824D01*
X127985936Y-75558881D01*
X128085826Y-75786606D01*
X128221833Y-75994782D01*
X128221836Y-75994785D01*
X128390256Y-76177738D01*
X128586491Y-76330474D01*
X128805190Y-76448828D01*
X129040386Y-76529571D01*
X129285665Y-76570500D01*
X129534335Y-76570500D01*
X129779614Y-76529571D01*
X130014810Y-76448828D01*
X130233509Y-76330474D01*
X130429744Y-76177738D01*
X130598164Y-75994785D01*
X130734173Y-75786607D01*
X130834063Y-75558881D01*
X130895108Y-75317821D01*
X130910500Y-75132067D01*
X130910500Y-72557933D01*
X130895108Y-72372179D01*
X130834063Y-72131119D01*
X130734173Y-71903393D01*
X130598166Y-71695217D01*
X130576557Y-71671744D01*
X130429744Y-71512262D01*
X130233509Y-71359526D01*
X130233507Y-71359525D01*
X130233506Y-71359524D01*
X130014811Y-71241172D01*
X130014802Y-71241169D01*
X129779616Y-71160429D01*
X129534335Y-71119500D01*
X129285665Y-71119500D01*
X129040383Y-71160429D01*
X128805197Y-71241169D01*
X128805188Y-71241172D01*
X128586493Y-71359524D01*
X128390257Y-71512261D01*
X128221833Y-71695217D01*
X128085826Y-71903393D01*
X127985936Y-72131118D01*
X127924892Y-72372175D01*
X127924890Y-72372186D01*
X127909500Y-72557935D01*
X127909500Y-75132065D01*
X126376772Y-75132065D01*
X126390000Y-73020000D01*
X126396989Y-68728295D01*
X126416783Y-68661291D01*
X126469661Y-68615622D01*
X126520989Y-68604500D01*
X152111500Y-68604500D01*
X152178539Y-68624185D01*
G37*
%TD.AperFunction*%
%TD*%
%TA.AperFunction,Conductor*%
%TO.N,GND*%
G36*
X152178456Y-78377752D02*
G01*
X152224253Y-78430519D01*
X152235500Y-78482121D01*
X152235500Y-87971500D01*
X152215815Y-88038539D01*
X152163011Y-88084294D01*
X152111500Y-88095500D01*
X102868500Y-88095500D01*
X102801461Y-88075815D01*
X102755706Y-88023011D01*
X102744500Y-87971500D01*
X102744500Y-79214669D01*
X102764185Y-79147630D01*
X102816989Y-79101875D01*
X102871541Y-79091299D01*
X102871539Y-79090840D01*
X102873979Y-79090826D01*
X102874132Y-79090797D01*
X102874648Y-79090819D01*
X102874681Y-79090823D01*
X114813297Y-79025497D01*
X123137125Y-79016448D01*
X123204184Y-79036060D01*
X123249996Y-79088814D01*
X123260015Y-79157962D01*
X123256348Y-79174996D01*
X123254500Y-79181366D01*
X123234608Y-79262308D01*
X123234607Y-79262316D01*
X123214667Y-79464781D01*
X123224115Y-82440463D01*
X123224155Y-82446850D01*
X123224157Y-82446882D01*
X123246667Y-82649057D01*
X123246668Y-82649062D01*
X123257510Y-82699379D01*
X123280310Y-82786182D01*
X123360065Y-82973333D01*
X123360068Y-82973338D01*
X123475875Y-83140620D01*
X123521247Y-83193741D01*
X123521250Y-83193744D01*
X123639535Y-83310995D01*
X123807821Y-83425325D01*
X123995677Y-83503439D01*
X124062575Y-83523601D01*
X124143311Y-83544325D01*
X124345565Y-83566348D01*
X131117956Y-83614584D01*
X131117957Y-83614583D01*
X131117958Y-83614584D01*
X131120714Y-83614582D01*
X131133127Y-83614578D01*
X131335363Y-83592384D01*
X131387757Y-83581181D01*
X131387761Y-83581179D01*
X131387770Y-83581178D01*
X131447775Y-83565237D01*
X131482938Y-83555897D01*
X131669527Y-83474805D01*
X131835974Y-83357813D01*
X131888778Y-83312058D01*
X132005179Y-83192945D01*
X132118308Y-83023849D01*
X132195083Y-82835442D01*
X132198211Y-82824788D01*
X132214768Y-82768404D01*
X132218797Y-82752226D01*
X132234917Y-82687519D01*
X132255500Y-82485113D01*
X132255500Y-78840436D01*
X132275185Y-78773397D01*
X132327989Y-78727642D01*
X132379729Y-78716436D01*
X142535245Y-78735455D01*
X142535245Y-78735454D01*
X142535247Y-78735455D01*
X142596451Y-78731834D01*
X142656828Y-78724552D01*
X142658070Y-78724400D01*
X142658984Y-78724289D01*
X142857372Y-78679186D01*
X142857375Y-78679184D01*
X142857377Y-78679184D01*
X143042615Y-78595074D01*
X143042616Y-78595073D01*
X143042619Y-78595072D01*
X143102989Y-78559897D01*
X143173202Y-78514989D01*
X143312027Y-78395223D01*
X143375646Y-78366337D01*
X143392924Y-78365113D01*
X147529090Y-78361795D01*
X152111401Y-78358121D01*
X152178456Y-78377752D01*
G37*
%TD.AperFunction*%
%TA.AperFunction,Conductor*%
G36*
X129461153Y-72126691D02*
G01*
X129478606Y-72129603D01*
X129521802Y-72136810D01*
X129541642Y-72141834D01*
X129599799Y-72161799D01*
X129618546Y-72170023D01*
X129627925Y-72175098D01*
X129672638Y-72199295D01*
X129689778Y-72210494D01*
X129738296Y-72248257D01*
X129753353Y-72262117D01*
X129795010Y-72307369D01*
X129807582Y-72323522D01*
X129841210Y-72374994D01*
X129850958Y-72393006D01*
X129875657Y-72449316D01*
X129882305Y-72468683D01*
X129897399Y-72528285D01*
X129900770Y-72548485D01*
X129904788Y-72596960D01*
X129905000Y-72602083D01*
X129905000Y-75087915D01*
X129904788Y-75093038D01*
X129900770Y-75141513D01*
X129897399Y-75161713D01*
X129882305Y-75221315D01*
X129875656Y-75240682D01*
X129850959Y-75296987D01*
X129841212Y-75314999D01*
X129807578Y-75366480D01*
X129794999Y-75382642D01*
X129753362Y-75427872D01*
X129738295Y-75441742D01*
X129689780Y-75479503D01*
X129672634Y-75490705D01*
X129618551Y-75519973D01*
X129599797Y-75528199D01*
X129541656Y-75548159D01*
X129521804Y-75553187D01*
X129469007Y-75561997D01*
X129461149Y-75563309D01*
X129440740Y-75565000D01*
X129379259Y-75565000D01*
X129358850Y-75563309D01*
X129336467Y-75559574D01*
X129298194Y-75553187D01*
X129278342Y-75548159D01*
X129220201Y-75528199D01*
X129201447Y-75519973D01*
X129147364Y-75490705D01*
X129130218Y-75479503D01*
X129081703Y-75441742D01*
X129066641Y-75427876D01*
X129024988Y-75382630D01*
X129012416Y-75366477D01*
X128978784Y-75314998D01*
X128969040Y-75296992D01*
X128944341Y-75240684D01*
X128937693Y-75221320D01*
X128922597Y-75161710D01*
X128919228Y-75141515D01*
X128915212Y-75093027D01*
X128915000Y-75087906D01*
X128915000Y-72602081D01*
X128915212Y-72596961D01*
X128917321Y-72571489D01*
X128919227Y-72548487D01*
X128922595Y-72528297D01*
X128937694Y-72468673D01*
X128944342Y-72449310D01*
X128969043Y-72392997D01*
X128978777Y-72375008D01*
X129012424Y-72323508D01*
X129024981Y-72307375D01*
X129066643Y-72262119D01*
X129081701Y-72248259D01*
X129130224Y-72210492D01*
X129147359Y-72199295D01*
X129201451Y-72170022D01*
X129220190Y-72161802D01*
X129278352Y-72141835D01*
X129298197Y-72136810D01*
X129347424Y-72128596D01*
X129358846Y-72126691D01*
X129379253Y-72125000D01*
X129440746Y-72125000D01*
X129461153Y-72126691D01*
G37*
%TD.AperFunction*%
%TD*%
M02*
