%TF.GenerationSoftware,KiCad,Pcbnew,7.0.9*%
%TF.CreationDate,2024-09-22T22:34:37+04:00*%
%TF.ProjectId,LDO_Module,4c444f5f-4d6f-4647-956c-652e6b696361,1*%
%TF.SameCoordinates,Original*%
%TF.FileFunction,AssemblyDrawing,Top*%
%FSLAX46Y46*%
G04 Gerber Fmt 4.6, Leading zero omitted, Abs format (unit mm)*
G04 Created by KiCad (PCBNEW 7.0.9) date 2024-09-22 22:34:37*
%MOMM*%
%LPD*%
G01*
G04 APERTURE LIST*
%ADD10C,0.150000*%
%ADD11C,0.120000*%
%ADD12C,0.100000*%
G04 APERTURE END LIST*
D10*
X132374819Y-79291428D02*
X132374819Y-79862856D01*
X132374819Y-79577142D02*
X131374819Y-79577142D01*
X131374819Y-79577142D02*
X131517676Y-79672380D01*
X131517676Y-79672380D02*
X131612914Y-79767618D01*
X131612914Y-79767618D02*
X131660533Y-79862856D01*
X131374819Y-78672380D02*
X131374819Y-78577142D01*
X131374819Y-78577142D02*
X131422438Y-78481904D01*
X131422438Y-78481904D02*
X131470057Y-78434285D01*
X131470057Y-78434285D02*
X131565295Y-78386666D01*
X131565295Y-78386666D02*
X131755771Y-78339047D01*
X131755771Y-78339047D02*
X131993866Y-78339047D01*
X131993866Y-78339047D02*
X132184342Y-78386666D01*
X132184342Y-78386666D02*
X132279580Y-78434285D01*
X132279580Y-78434285D02*
X132327200Y-78481904D01*
X132327200Y-78481904D02*
X132374819Y-78577142D01*
X132374819Y-78577142D02*
X132374819Y-78672380D01*
X132374819Y-78672380D02*
X132327200Y-78767618D01*
X132327200Y-78767618D02*
X132279580Y-78815237D01*
X132279580Y-78815237D02*
X132184342Y-78862856D01*
X132184342Y-78862856D02*
X131993866Y-78910475D01*
X131993866Y-78910475D02*
X131755771Y-78910475D01*
X131755771Y-78910475D02*
X131565295Y-78862856D01*
X131565295Y-78862856D02*
X131470057Y-78815237D01*
X131470057Y-78815237D02*
X131422438Y-78767618D01*
X131422438Y-78767618D02*
X131374819Y-78672380D01*
X131708152Y-77481904D02*
X132374819Y-77481904D01*
X131708152Y-77910475D02*
X132231961Y-77910475D01*
X132231961Y-77910475D02*
X132327200Y-77862856D01*
X132327200Y-77862856D02*
X132374819Y-77767618D01*
X132374819Y-77767618D02*
X132374819Y-77624761D01*
X132374819Y-77624761D02*
X132327200Y-77529523D01*
X132327200Y-77529523D02*
X132279580Y-77481904D01*
X131851009Y-76672380D02*
X131851009Y-77005713D01*
X132374819Y-77005713D02*
X131374819Y-77005713D01*
X131374819Y-77005713D02*
X131374819Y-76529523D01*
X134929580Y-78386666D02*
X134977200Y-78434285D01*
X134977200Y-78434285D02*
X135024819Y-78577142D01*
X135024819Y-78577142D02*
X135024819Y-78672380D01*
X135024819Y-78672380D02*
X134977200Y-78815237D01*
X134977200Y-78815237D02*
X134881961Y-78910475D01*
X134881961Y-78910475D02*
X134786723Y-78958094D01*
X134786723Y-78958094D02*
X134596247Y-79005713D01*
X134596247Y-79005713D02*
X134453390Y-79005713D01*
X134453390Y-79005713D02*
X134262914Y-78958094D01*
X134262914Y-78958094D02*
X134167676Y-78910475D01*
X134167676Y-78910475D02*
X134072438Y-78815237D01*
X134072438Y-78815237D02*
X134024819Y-78672380D01*
X134024819Y-78672380D02*
X134024819Y-78577142D01*
X134024819Y-78577142D02*
X134072438Y-78434285D01*
X134072438Y-78434285D02*
X134120057Y-78386666D01*
X134120057Y-78005713D02*
X134072438Y-77958094D01*
X134072438Y-77958094D02*
X134024819Y-77862856D01*
X134024819Y-77862856D02*
X134024819Y-77624761D01*
X134024819Y-77624761D02*
X134072438Y-77529523D01*
X134072438Y-77529523D02*
X134120057Y-77481904D01*
X134120057Y-77481904D02*
X134215295Y-77434285D01*
X134215295Y-77434285D02*
X134310533Y-77434285D01*
X134310533Y-77434285D02*
X134453390Y-77481904D01*
X134453390Y-77481904D02*
X135024819Y-78053332D01*
X135024819Y-78053332D02*
X135024819Y-77434285D01*
X117544819Y-79907619D02*
X117544819Y-80479047D01*
X117544819Y-80193333D02*
X116544819Y-80193333D01*
X116544819Y-80193333D02*
X116687676Y-80288571D01*
X116687676Y-80288571D02*
X116782914Y-80383809D01*
X116782914Y-80383809D02*
X116830533Y-80479047D01*
X116544819Y-79288571D02*
X116544819Y-79193333D01*
X116544819Y-79193333D02*
X116592438Y-79098095D01*
X116592438Y-79098095D02*
X116640057Y-79050476D01*
X116640057Y-79050476D02*
X116735295Y-79002857D01*
X116735295Y-79002857D02*
X116925771Y-78955238D01*
X116925771Y-78955238D02*
X117163866Y-78955238D01*
X117163866Y-78955238D02*
X117354342Y-79002857D01*
X117354342Y-79002857D02*
X117449580Y-79050476D01*
X117449580Y-79050476D02*
X117497200Y-79098095D01*
X117497200Y-79098095D02*
X117544819Y-79193333D01*
X117544819Y-79193333D02*
X117544819Y-79288571D01*
X117544819Y-79288571D02*
X117497200Y-79383809D01*
X117497200Y-79383809D02*
X117449580Y-79431428D01*
X117449580Y-79431428D02*
X117354342Y-79479047D01*
X117354342Y-79479047D02*
X117163866Y-79526666D01*
X117163866Y-79526666D02*
X116925771Y-79526666D01*
X116925771Y-79526666D02*
X116735295Y-79479047D01*
X116735295Y-79479047D02*
X116640057Y-79431428D01*
X116640057Y-79431428D02*
X116592438Y-79383809D01*
X116592438Y-79383809D02*
X116544819Y-79288571D01*
X116544819Y-78336190D02*
X116544819Y-78240952D01*
X116544819Y-78240952D02*
X116592438Y-78145714D01*
X116592438Y-78145714D02*
X116640057Y-78098095D01*
X116640057Y-78098095D02*
X116735295Y-78050476D01*
X116735295Y-78050476D02*
X116925771Y-78002857D01*
X116925771Y-78002857D02*
X117163866Y-78002857D01*
X117163866Y-78002857D02*
X117354342Y-78050476D01*
X117354342Y-78050476D02*
X117449580Y-78098095D01*
X117449580Y-78098095D02*
X117497200Y-78145714D01*
X117497200Y-78145714D02*
X117544819Y-78240952D01*
X117544819Y-78240952D02*
X117544819Y-78336190D01*
X117544819Y-78336190D02*
X117497200Y-78431428D01*
X117497200Y-78431428D02*
X117449580Y-78479047D01*
X117449580Y-78479047D02*
X117354342Y-78526666D01*
X117354342Y-78526666D02*
X117163866Y-78574285D01*
X117163866Y-78574285D02*
X116925771Y-78574285D01*
X116925771Y-78574285D02*
X116735295Y-78526666D01*
X116735295Y-78526666D02*
X116640057Y-78479047D01*
X116640057Y-78479047D02*
X116592438Y-78431428D01*
X116592438Y-78431428D02*
X116544819Y-78336190D01*
X116878152Y-77574285D02*
X117544819Y-77574285D01*
X116973390Y-77574285D02*
X116925771Y-77526666D01*
X116925771Y-77526666D02*
X116878152Y-77431428D01*
X116878152Y-77431428D02*
X116878152Y-77288571D01*
X116878152Y-77288571D02*
X116925771Y-77193333D01*
X116925771Y-77193333D02*
X117021009Y-77145714D01*
X117021009Y-77145714D02*
X117544819Y-77145714D01*
X117021009Y-76336190D02*
X117021009Y-76669523D01*
X117544819Y-76669523D02*
X116544819Y-76669523D01*
X116544819Y-76669523D02*
X116544819Y-76193333D01*
X120099580Y-78526666D02*
X120147200Y-78574285D01*
X120147200Y-78574285D02*
X120194819Y-78717142D01*
X120194819Y-78717142D02*
X120194819Y-78812380D01*
X120194819Y-78812380D02*
X120147200Y-78955237D01*
X120147200Y-78955237D02*
X120051961Y-79050475D01*
X120051961Y-79050475D02*
X119956723Y-79098094D01*
X119956723Y-79098094D02*
X119766247Y-79145713D01*
X119766247Y-79145713D02*
X119623390Y-79145713D01*
X119623390Y-79145713D02*
X119432914Y-79098094D01*
X119432914Y-79098094D02*
X119337676Y-79050475D01*
X119337676Y-79050475D02*
X119242438Y-78955237D01*
X119242438Y-78955237D02*
X119194819Y-78812380D01*
X119194819Y-78812380D02*
X119194819Y-78717142D01*
X119194819Y-78717142D02*
X119242438Y-78574285D01*
X119242438Y-78574285D02*
X119290057Y-78526666D01*
X120194819Y-77574285D02*
X120194819Y-78145713D01*
X120194819Y-77859999D02*
X119194819Y-77859999D01*
X119194819Y-77859999D02*
X119337676Y-77955237D01*
X119337676Y-77955237D02*
X119432914Y-78050475D01*
X119432914Y-78050475D02*
X119480533Y-78145713D01*
X123064819Y-85815238D02*
X123064819Y-86291428D01*
X123064819Y-86291428D02*
X122064819Y-86291428D01*
X123064819Y-85481904D02*
X122064819Y-85481904D01*
X122064819Y-85481904D02*
X122064819Y-85243809D01*
X122064819Y-85243809D02*
X122112438Y-85100952D01*
X122112438Y-85100952D02*
X122207676Y-85005714D01*
X122207676Y-85005714D02*
X122302914Y-84958095D01*
X122302914Y-84958095D02*
X122493390Y-84910476D01*
X122493390Y-84910476D02*
X122636247Y-84910476D01*
X122636247Y-84910476D02*
X122826723Y-84958095D01*
X122826723Y-84958095D02*
X122921961Y-85005714D01*
X122921961Y-85005714D02*
X123017200Y-85100952D01*
X123017200Y-85100952D02*
X123064819Y-85243809D01*
X123064819Y-85243809D02*
X123064819Y-85481904D01*
X123064819Y-83958095D02*
X123064819Y-84529523D01*
X123064819Y-84243809D02*
X122064819Y-84243809D01*
X122064819Y-84243809D02*
X122207676Y-84339047D01*
X122207676Y-84339047D02*
X122302914Y-84434285D01*
X122302914Y-84434285D02*
X122350533Y-84529523D01*
X123064819Y-83005714D02*
X123064819Y-83577142D01*
X123064819Y-83291428D02*
X122064819Y-83291428D01*
X122064819Y-83291428D02*
X122207676Y-83386666D01*
X122207676Y-83386666D02*
X122302914Y-83481904D01*
X122302914Y-83481904D02*
X122350533Y-83577142D01*
X123064819Y-82053333D02*
X123064819Y-82624761D01*
X123064819Y-82339047D02*
X122064819Y-82339047D01*
X122064819Y-82339047D02*
X122207676Y-82434285D01*
X122207676Y-82434285D02*
X122302914Y-82529523D01*
X122302914Y-82529523D02*
X122350533Y-82624761D01*
X122064819Y-81719999D02*
X122064819Y-81053333D01*
X122064819Y-81053333D02*
X123064819Y-81481904D01*
X123017200Y-80719999D02*
X123064819Y-80577142D01*
X123064819Y-80577142D02*
X123064819Y-80339047D01*
X123064819Y-80339047D02*
X123017200Y-80243809D01*
X123017200Y-80243809D02*
X122969580Y-80196190D01*
X122969580Y-80196190D02*
X122874342Y-80148571D01*
X122874342Y-80148571D02*
X122779104Y-80148571D01*
X122779104Y-80148571D02*
X122683866Y-80196190D01*
X122683866Y-80196190D02*
X122636247Y-80243809D01*
X122636247Y-80243809D02*
X122588628Y-80339047D01*
X122588628Y-80339047D02*
X122541009Y-80529523D01*
X122541009Y-80529523D02*
X122493390Y-80624761D01*
X122493390Y-80624761D02*
X122445771Y-80672380D01*
X122445771Y-80672380D02*
X122350533Y-80719999D01*
X122350533Y-80719999D02*
X122255295Y-80719999D01*
X122255295Y-80719999D02*
X122160057Y-80672380D01*
X122160057Y-80672380D02*
X122112438Y-80624761D01*
X122112438Y-80624761D02*
X122064819Y-80529523D01*
X122064819Y-80529523D02*
X122064819Y-80291428D01*
X122064819Y-80291428D02*
X122112438Y-80148571D01*
X122064819Y-79815237D02*
X122064819Y-79196190D01*
X122064819Y-79196190D02*
X122445771Y-79529523D01*
X122445771Y-79529523D02*
X122445771Y-79386666D01*
X122445771Y-79386666D02*
X122493390Y-79291428D01*
X122493390Y-79291428D02*
X122541009Y-79243809D01*
X122541009Y-79243809D02*
X122636247Y-79196190D01*
X122636247Y-79196190D02*
X122874342Y-79196190D01*
X122874342Y-79196190D02*
X122969580Y-79243809D01*
X122969580Y-79243809D02*
X123017200Y-79291428D01*
X123017200Y-79291428D02*
X123064819Y-79386666D01*
X123064819Y-79386666D02*
X123064819Y-79672380D01*
X123064819Y-79672380D02*
X123017200Y-79767618D01*
X123017200Y-79767618D02*
X122969580Y-79815237D01*
X122064819Y-78862856D02*
X122064819Y-78243809D01*
X122064819Y-78243809D02*
X122445771Y-78577142D01*
X122445771Y-78577142D02*
X122445771Y-78434285D01*
X122445771Y-78434285D02*
X122493390Y-78339047D01*
X122493390Y-78339047D02*
X122541009Y-78291428D01*
X122541009Y-78291428D02*
X122636247Y-78243809D01*
X122636247Y-78243809D02*
X122874342Y-78243809D01*
X122874342Y-78243809D02*
X122969580Y-78291428D01*
X122969580Y-78291428D02*
X123017200Y-78339047D01*
X123017200Y-78339047D02*
X123064819Y-78434285D01*
X123064819Y-78434285D02*
X123064819Y-78719999D01*
X123064819Y-78719999D02*
X123017200Y-78815237D01*
X123017200Y-78815237D02*
X122969580Y-78862856D01*
X122064819Y-77958094D02*
X122064819Y-77386666D01*
X123064819Y-77672380D02*
X122064819Y-77672380D01*
X123064819Y-76481904D02*
X122588628Y-76815237D01*
X123064819Y-77053332D02*
X122064819Y-77053332D01*
X122064819Y-77053332D02*
X122064819Y-76672380D01*
X122064819Y-76672380D02*
X122112438Y-76577142D01*
X122112438Y-76577142D02*
X122160057Y-76529523D01*
X122160057Y-76529523D02*
X122255295Y-76481904D01*
X122255295Y-76481904D02*
X122398152Y-76481904D01*
X122398152Y-76481904D02*
X122493390Y-76529523D01*
X122493390Y-76529523D02*
X122541009Y-76577142D01*
X122541009Y-76577142D02*
X122588628Y-76672380D01*
X122588628Y-76672380D02*
X122588628Y-77053332D01*
X123160057Y-76291428D02*
X123160057Y-75529523D01*
X123017200Y-75339046D02*
X123064819Y-75196189D01*
X123064819Y-75196189D02*
X123064819Y-74958094D01*
X123064819Y-74958094D02*
X123017200Y-74862856D01*
X123017200Y-74862856D02*
X122969580Y-74815237D01*
X122969580Y-74815237D02*
X122874342Y-74767618D01*
X122874342Y-74767618D02*
X122779104Y-74767618D01*
X122779104Y-74767618D02*
X122683866Y-74815237D01*
X122683866Y-74815237D02*
X122636247Y-74862856D01*
X122636247Y-74862856D02*
X122588628Y-74958094D01*
X122588628Y-74958094D02*
X122541009Y-75148570D01*
X122541009Y-75148570D02*
X122493390Y-75243808D01*
X122493390Y-75243808D02*
X122445771Y-75291427D01*
X122445771Y-75291427D02*
X122350533Y-75339046D01*
X122350533Y-75339046D02*
X122255295Y-75339046D01*
X122255295Y-75339046D02*
X122160057Y-75291427D01*
X122160057Y-75291427D02*
X122112438Y-75243808D01*
X122112438Y-75243808D02*
X122064819Y-75148570D01*
X122064819Y-75148570D02*
X122064819Y-74910475D01*
X122064819Y-74910475D02*
X122112438Y-74767618D01*
X122064819Y-74148570D02*
X122064819Y-73958094D01*
X122064819Y-73958094D02*
X122112438Y-73862856D01*
X122112438Y-73862856D02*
X122207676Y-73767618D01*
X122207676Y-73767618D02*
X122398152Y-73719999D01*
X122398152Y-73719999D02*
X122731485Y-73719999D01*
X122731485Y-73719999D02*
X122921961Y-73767618D01*
X122921961Y-73767618D02*
X123017200Y-73862856D01*
X123017200Y-73862856D02*
X123064819Y-73958094D01*
X123064819Y-73958094D02*
X123064819Y-74148570D01*
X123064819Y-74148570D02*
X123017200Y-74243808D01*
X123017200Y-74243808D02*
X122921961Y-74339046D01*
X122921961Y-74339046D02*
X122731485Y-74386665D01*
X122731485Y-74386665D02*
X122398152Y-74386665D01*
X122398152Y-74386665D02*
X122207676Y-74339046D01*
X122207676Y-74339046D02*
X122112438Y-74243808D01*
X122112438Y-74243808D02*
X122064819Y-74148570D01*
X122064819Y-73434284D02*
X122064819Y-72862856D01*
X123064819Y-73148570D02*
X122064819Y-73148570D01*
X122160057Y-72577141D02*
X122112438Y-72529522D01*
X122112438Y-72529522D02*
X122064819Y-72434284D01*
X122064819Y-72434284D02*
X122064819Y-72196189D01*
X122064819Y-72196189D02*
X122112438Y-72100951D01*
X122112438Y-72100951D02*
X122160057Y-72053332D01*
X122160057Y-72053332D02*
X122255295Y-72005713D01*
X122255295Y-72005713D02*
X122350533Y-72005713D01*
X122350533Y-72005713D02*
X122493390Y-72053332D01*
X122493390Y-72053332D02*
X123064819Y-72624760D01*
X123064819Y-72624760D02*
X123064819Y-72005713D01*
X122160057Y-71624760D02*
X122112438Y-71577141D01*
X122112438Y-71577141D02*
X122064819Y-71481903D01*
X122064819Y-71481903D02*
X122064819Y-71243808D01*
X122064819Y-71243808D02*
X122112438Y-71148570D01*
X122112438Y-71148570D02*
X122160057Y-71100951D01*
X122160057Y-71100951D02*
X122255295Y-71053332D01*
X122255295Y-71053332D02*
X122350533Y-71053332D01*
X122350533Y-71053332D02*
X122493390Y-71100951D01*
X122493390Y-71100951D02*
X123064819Y-71672379D01*
X123064819Y-71672379D02*
X123064819Y-71053332D01*
X122064819Y-70719998D02*
X122064819Y-70100951D01*
X122064819Y-70100951D02*
X122445771Y-70434284D01*
X122445771Y-70434284D02*
X122445771Y-70291427D01*
X122445771Y-70291427D02*
X122493390Y-70196189D01*
X122493390Y-70196189D02*
X122541009Y-70148570D01*
X122541009Y-70148570D02*
X122636247Y-70100951D01*
X122636247Y-70100951D02*
X122874342Y-70100951D01*
X122874342Y-70100951D02*
X122969580Y-70148570D01*
X122969580Y-70148570D02*
X123017200Y-70196189D01*
X123017200Y-70196189D02*
X123064819Y-70291427D01*
X123064819Y-70291427D02*
X123064819Y-70577141D01*
X123064819Y-70577141D02*
X123017200Y-70672379D01*
X123017200Y-70672379D02*
X122969580Y-70719998D01*
D11*
X126500476Y-77783855D02*
X126500476Y-78431474D01*
X126500476Y-78431474D02*
X126538571Y-78507664D01*
X126538571Y-78507664D02*
X126576666Y-78545760D01*
X126576666Y-78545760D02*
X126652857Y-78583855D01*
X126652857Y-78583855D02*
X126805238Y-78583855D01*
X126805238Y-78583855D02*
X126881428Y-78545760D01*
X126881428Y-78545760D02*
X126919523Y-78507664D01*
X126919523Y-78507664D02*
X126957619Y-78431474D01*
X126957619Y-78431474D02*
X126957619Y-77783855D01*
X127300475Y-77860045D02*
X127338571Y-77821950D01*
X127338571Y-77821950D02*
X127414761Y-77783855D01*
X127414761Y-77783855D02*
X127605237Y-77783855D01*
X127605237Y-77783855D02*
X127681428Y-77821950D01*
X127681428Y-77821950D02*
X127719523Y-77860045D01*
X127719523Y-77860045D02*
X127757618Y-77936236D01*
X127757618Y-77936236D02*
X127757618Y-78012426D01*
X127757618Y-78012426D02*
X127719523Y-78126712D01*
X127719523Y-78126712D02*
X127262380Y-78583855D01*
X127262380Y-78583855D02*
X127757618Y-78583855D01*
D10*
X137989580Y-84715239D02*
X138037200Y-84762858D01*
X138037200Y-84762858D02*
X138084819Y-84905715D01*
X138084819Y-84905715D02*
X138084819Y-85000953D01*
X138084819Y-85000953D02*
X138037200Y-85143810D01*
X138037200Y-85143810D02*
X137941961Y-85239048D01*
X137941961Y-85239048D02*
X137846723Y-85286667D01*
X137846723Y-85286667D02*
X137656247Y-85334286D01*
X137656247Y-85334286D02*
X137513390Y-85334286D01*
X137513390Y-85334286D02*
X137322914Y-85286667D01*
X137322914Y-85286667D02*
X137227676Y-85239048D01*
X137227676Y-85239048D02*
X137132438Y-85143810D01*
X137132438Y-85143810D02*
X137084819Y-85000953D01*
X137084819Y-85000953D02*
X137084819Y-84905715D01*
X137084819Y-84905715D02*
X137132438Y-84762858D01*
X137132438Y-84762858D02*
X137180057Y-84715239D01*
X138084819Y-84143810D02*
X138037200Y-84239048D01*
X138037200Y-84239048D02*
X137989580Y-84286667D01*
X137989580Y-84286667D02*
X137894342Y-84334286D01*
X137894342Y-84334286D02*
X137608628Y-84334286D01*
X137608628Y-84334286D02*
X137513390Y-84286667D01*
X137513390Y-84286667D02*
X137465771Y-84239048D01*
X137465771Y-84239048D02*
X137418152Y-84143810D01*
X137418152Y-84143810D02*
X137418152Y-84000953D01*
X137418152Y-84000953D02*
X137465771Y-83905715D01*
X137465771Y-83905715D02*
X137513390Y-83858096D01*
X137513390Y-83858096D02*
X137608628Y-83810477D01*
X137608628Y-83810477D02*
X137894342Y-83810477D01*
X137894342Y-83810477D02*
X137989580Y-83858096D01*
X137989580Y-83858096D02*
X138037200Y-83905715D01*
X138037200Y-83905715D02*
X138084819Y-84000953D01*
X138084819Y-84000953D02*
X138084819Y-84143810D01*
X137418152Y-83381905D02*
X138084819Y-83381905D01*
X137513390Y-83381905D02*
X137465771Y-83334286D01*
X137465771Y-83334286D02*
X137418152Y-83239048D01*
X137418152Y-83239048D02*
X137418152Y-83096191D01*
X137418152Y-83096191D02*
X137465771Y-83000953D01*
X137465771Y-83000953D02*
X137561009Y-82953334D01*
X137561009Y-82953334D02*
X138084819Y-82953334D01*
X137418152Y-82477143D02*
X138084819Y-82477143D01*
X137513390Y-82477143D02*
X137465771Y-82429524D01*
X137465771Y-82429524D02*
X137418152Y-82334286D01*
X137418152Y-82334286D02*
X137418152Y-82191429D01*
X137418152Y-82191429D02*
X137465771Y-82096191D01*
X137465771Y-82096191D02*
X137561009Y-82048572D01*
X137561009Y-82048572D02*
X138084819Y-82048572D01*
X138180057Y-81810477D02*
X138180057Y-81048572D01*
X137084819Y-80620000D02*
X137084819Y-80524762D01*
X137084819Y-80524762D02*
X137132438Y-80429524D01*
X137132438Y-80429524D02*
X137180057Y-80381905D01*
X137180057Y-80381905D02*
X137275295Y-80334286D01*
X137275295Y-80334286D02*
X137465771Y-80286667D01*
X137465771Y-80286667D02*
X137703866Y-80286667D01*
X137703866Y-80286667D02*
X137894342Y-80334286D01*
X137894342Y-80334286D02*
X137989580Y-80381905D01*
X137989580Y-80381905D02*
X138037200Y-80429524D01*
X138037200Y-80429524D02*
X138084819Y-80524762D01*
X138084819Y-80524762D02*
X138084819Y-80620000D01*
X138084819Y-80620000D02*
X138037200Y-80715238D01*
X138037200Y-80715238D02*
X137989580Y-80762857D01*
X137989580Y-80762857D02*
X137894342Y-80810476D01*
X137894342Y-80810476D02*
X137703866Y-80858095D01*
X137703866Y-80858095D02*
X137465771Y-80858095D01*
X137465771Y-80858095D02*
X137275295Y-80810476D01*
X137275295Y-80810476D02*
X137180057Y-80762857D01*
X137180057Y-80762857D02*
X137132438Y-80715238D01*
X137132438Y-80715238D02*
X137084819Y-80620000D01*
X138084819Y-79334286D02*
X138084819Y-79905714D01*
X138084819Y-79620000D02*
X137084819Y-79620000D01*
X137084819Y-79620000D02*
X137227676Y-79715238D01*
X137227676Y-79715238D02*
X137322914Y-79810476D01*
X137322914Y-79810476D02*
X137370533Y-79905714D01*
X138084819Y-79000952D02*
X137418152Y-78477143D01*
X137418152Y-79000952D02*
X138084819Y-78477143D01*
X137084819Y-77905714D02*
X137084819Y-77810476D01*
X137084819Y-77810476D02*
X137132438Y-77715238D01*
X137132438Y-77715238D02*
X137180057Y-77667619D01*
X137180057Y-77667619D02*
X137275295Y-77620000D01*
X137275295Y-77620000D02*
X137465771Y-77572381D01*
X137465771Y-77572381D02*
X137703866Y-77572381D01*
X137703866Y-77572381D02*
X137894342Y-77620000D01*
X137894342Y-77620000D02*
X137989580Y-77667619D01*
X137989580Y-77667619D02*
X138037200Y-77715238D01*
X138037200Y-77715238D02*
X138084819Y-77810476D01*
X138084819Y-77810476D02*
X138084819Y-77905714D01*
X138084819Y-77905714D02*
X138037200Y-78000952D01*
X138037200Y-78000952D02*
X137989580Y-78048571D01*
X137989580Y-78048571D02*
X137894342Y-78096190D01*
X137894342Y-78096190D02*
X137703866Y-78143809D01*
X137703866Y-78143809D02*
X137465771Y-78143809D01*
X137465771Y-78143809D02*
X137275295Y-78096190D01*
X137275295Y-78096190D02*
X137180057Y-78048571D01*
X137180057Y-78048571D02*
X137132438Y-78000952D01*
X137132438Y-78000952D02*
X137084819Y-77905714D01*
X137180057Y-77191428D02*
X137132438Y-77143809D01*
X137132438Y-77143809D02*
X137084819Y-77048571D01*
X137084819Y-77048571D02*
X137084819Y-76810476D01*
X137084819Y-76810476D02*
X137132438Y-76715238D01*
X137132438Y-76715238D02*
X137180057Y-76667619D01*
X137180057Y-76667619D02*
X137275295Y-76620000D01*
X137275295Y-76620000D02*
X137370533Y-76620000D01*
X137370533Y-76620000D02*
X137513390Y-76667619D01*
X137513390Y-76667619D02*
X138084819Y-77239047D01*
X138084819Y-77239047D02*
X138084819Y-76620000D01*
X138180057Y-76429524D02*
X138180057Y-75667619D01*
X138037200Y-75477142D02*
X138084819Y-75334285D01*
X138084819Y-75334285D02*
X138084819Y-75096190D01*
X138084819Y-75096190D02*
X138037200Y-75000952D01*
X138037200Y-75000952D02*
X137989580Y-74953333D01*
X137989580Y-74953333D02*
X137894342Y-74905714D01*
X137894342Y-74905714D02*
X137799104Y-74905714D01*
X137799104Y-74905714D02*
X137703866Y-74953333D01*
X137703866Y-74953333D02*
X137656247Y-75000952D01*
X137656247Y-75000952D02*
X137608628Y-75096190D01*
X137608628Y-75096190D02*
X137561009Y-75286666D01*
X137561009Y-75286666D02*
X137513390Y-75381904D01*
X137513390Y-75381904D02*
X137465771Y-75429523D01*
X137465771Y-75429523D02*
X137370533Y-75477142D01*
X137370533Y-75477142D02*
X137275295Y-75477142D01*
X137275295Y-75477142D02*
X137180057Y-75429523D01*
X137180057Y-75429523D02*
X137132438Y-75381904D01*
X137132438Y-75381904D02*
X137084819Y-75286666D01*
X137084819Y-75286666D02*
X137084819Y-75048571D01*
X137084819Y-75048571D02*
X137132438Y-74905714D01*
X138084819Y-74334285D02*
X138037200Y-74429523D01*
X138037200Y-74429523D02*
X137989580Y-74477142D01*
X137989580Y-74477142D02*
X137894342Y-74524761D01*
X137894342Y-74524761D02*
X137608628Y-74524761D01*
X137608628Y-74524761D02*
X137513390Y-74477142D01*
X137513390Y-74477142D02*
X137465771Y-74429523D01*
X137465771Y-74429523D02*
X137418152Y-74334285D01*
X137418152Y-74334285D02*
X137418152Y-74191428D01*
X137418152Y-74191428D02*
X137465771Y-74096190D01*
X137465771Y-74096190D02*
X137513390Y-74048571D01*
X137513390Y-74048571D02*
X137608628Y-74000952D01*
X137608628Y-74000952D02*
X137894342Y-74000952D01*
X137894342Y-74000952D02*
X137989580Y-74048571D01*
X137989580Y-74048571D02*
X138037200Y-74096190D01*
X138037200Y-74096190D02*
X138084819Y-74191428D01*
X138084819Y-74191428D02*
X138084819Y-74334285D01*
X138037200Y-73143809D02*
X138084819Y-73239047D01*
X138084819Y-73239047D02*
X138084819Y-73429523D01*
X138084819Y-73429523D02*
X138037200Y-73524761D01*
X138037200Y-73524761D02*
X137989580Y-73572380D01*
X137989580Y-73572380D02*
X137894342Y-73619999D01*
X137894342Y-73619999D02*
X137608628Y-73619999D01*
X137608628Y-73619999D02*
X137513390Y-73572380D01*
X137513390Y-73572380D02*
X137465771Y-73524761D01*
X137465771Y-73524761D02*
X137418152Y-73429523D01*
X137418152Y-73429523D02*
X137418152Y-73239047D01*
X137418152Y-73239047D02*
X137465771Y-73143809D01*
X138084819Y-72715237D02*
X137084819Y-72715237D01*
X137703866Y-72619999D02*
X138084819Y-72334285D01*
X137418152Y-72334285D02*
X137799104Y-72715237D01*
X138037200Y-71524761D02*
X138084819Y-71619999D01*
X138084819Y-71619999D02*
X138084819Y-71810475D01*
X138084819Y-71810475D02*
X138037200Y-71905713D01*
X138037200Y-71905713D02*
X137941961Y-71953332D01*
X137941961Y-71953332D02*
X137561009Y-71953332D01*
X137561009Y-71953332D02*
X137465771Y-71905713D01*
X137465771Y-71905713D02*
X137418152Y-71810475D01*
X137418152Y-71810475D02*
X137418152Y-71619999D01*
X137418152Y-71619999D02*
X137465771Y-71524761D01*
X137465771Y-71524761D02*
X137561009Y-71477142D01*
X137561009Y-71477142D02*
X137656247Y-71477142D01*
X137656247Y-71477142D02*
X137751485Y-71953332D01*
X137418152Y-71191427D02*
X137418152Y-70810475D01*
X137084819Y-71048570D02*
X137941961Y-71048570D01*
X137941961Y-71048570D02*
X138037200Y-71000951D01*
X138037200Y-71000951D02*
X138084819Y-70905713D01*
X138084819Y-70905713D02*
X138084819Y-70810475D01*
X142384819Y-78453333D02*
X143099104Y-78453333D01*
X143099104Y-78453333D02*
X143241961Y-78500952D01*
X143241961Y-78500952D02*
X143337200Y-78596190D01*
X143337200Y-78596190D02*
X143384819Y-78739047D01*
X143384819Y-78739047D02*
X143384819Y-78834285D01*
X142480057Y-78024761D02*
X142432438Y-77977142D01*
X142432438Y-77977142D02*
X142384819Y-77881904D01*
X142384819Y-77881904D02*
X142384819Y-77643809D01*
X142384819Y-77643809D02*
X142432438Y-77548571D01*
X142432438Y-77548571D02*
X142480057Y-77500952D01*
X142480057Y-77500952D02*
X142575295Y-77453333D01*
X142575295Y-77453333D02*
X142670533Y-77453333D01*
X142670533Y-77453333D02*
X142813390Y-77500952D01*
X142813390Y-77500952D02*
X143384819Y-78072380D01*
X143384819Y-78072380D02*
X143384819Y-77453333D01*
X117922080Y-84885239D02*
X117969700Y-84932858D01*
X117969700Y-84932858D02*
X118017319Y-85075715D01*
X118017319Y-85075715D02*
X118017319Y-85170953D01*
X118017319Y-85170953D02*
X117969700Y-85313810D01*
X117969700Y-85313810D02*
X117874461Y-85409048D01*
X117874461Y-85409048D02*
X117779223Y-85456667D01*
X117779223Y-85456667D02*
X117588747Y-85504286D01*
X117588747Y-85504286D02*
X117445890Y-85504286D01*
X117445890Y-85504286D02*
X117255414Y-85456667D01*
X117255414Y-85456667D02*
X117160176Y-85409048D01*
X117160176Y-85409048D02*
X117064938Y-85313810D01*
X117064938Y-85313810D02*
X117017319Y-85170953D01*
X117017319Y-85170953D02*
X117017319Y-85075715D01*
X117017319Y-85075715D02*
X117064938Y-84932858D01*
X117064938Y-84932858D02*
X117112557Y-84885239D01*
X118017319Y-84313810D02*
X117969700Y-84409048D01*
X117969700Y-84409048D02*
X117922080Y-84456667D01*
X117922080Y-84456667D02*
X117826842Y-84504286D01*
X117826842Y-84504286D02*
X117541128Y-84504286D01*
X117541128Y-84504286D02*
X117445890Y-84456667D01*
X117445890Y-84456667D02*
X117398271Y-84409048D01*
X117398271Y-84409048D02*
X117350652Y-84313810D01*
X117350652Y-84313810D02*
X117350652Y-84170953D01*
X117350652Y-84170953D02*
X117398271Y-84075715D01*
X117398271Y-84075715D02*
X117445890Y-84028096D01*
X117445890Y-84028096D02*
X117541128Y-83980477D01*
X117541128Y-83980477D02*
X117826842Y-83980477D01*
X117826842Y-83980477D02*
X117922080Y-84028096D01*
X117922080Y-84028096D02*
X117969700Y-84075715D01*
X117969700Y-84075715D02*
X118017319Y-84170953D01*
X118017319Y-84170953D02*
X118017319Y-84313810D01*
X117350652Y-83551905D02*
X118017319Y-83551905D01*
X117445890Y-83551905D02*
X117398271Y-83504286D01*
X117398271Y-83504286D02*
X117350652Y-83409048D01*
X117350652Y-83409048D02*
X117350652Y-83266191D01*
X117350652Y-83266191D02*
X117398271Y-83170953D01*
X117398271Y-83170953D02*
X117493509Y-83123334D01*
X117493509Y-83123334D02*
X118017319Y-83123334D01*
X117350652Y-82647143D02*
X118017319Y-82647143D01*
X117445890Y-82647143D02*
X117398271Y-82599524D01*
X117398271Y-82599524D02*
X117350652Y-82504286D01*
X117350652Y-82504286D02*
X117350652Y-82361429D01*
X117350652Y-82361429D02*
X117398271Y-82266191D01*
X117398271Y-82266191D02*
X117493509Y-82218572D01*
X117493509Y-82218572D02*
X118017319Y-82218572D01*
X118112557Y-81980477D02*
X118112557Y-81218572D01*
X117017319Y-80790000D02*
X117017319Y-80694762D01*
X117017319Y-80694762D02*
X117064938Y-80599524D01*
X117064938Y-80599524D02*
X117112557Y-80551905D01*
X117112557Y-80551905D02*
X117207795Y-80504286D01*
X117207795Y-80504286D02*
X117398271Y-80456667D01*
X117398271Y-80456667D02*
X117636366Y-80456667D01*
X117636366Y-80456667D02*
X117826842Y-80504286D01*
X117826842Y-80504286D02*
X117922080Y-80551905D01*
X117922080Y-80551905D02*
X117969700Y-80599524D01*
X117969700Y-80599524D02*
X118017319Y-80694762D01*
X118017319Y-80694762D02*
X118017319Y-80790000D01*
X118017319Y-80790000D02*
X117969700Y-80885238D01*
X117969700Y-80885238D02*
X117922080Y-80932857D01*
X117922080Y-80932857D02*
X117826842Y-80980476D01*
X117826842Y-80980476D02*
X117636366Y-81028095D01*
X117636366Y-81028095D02*
X117398271Y-81028095D01*
X117398271Y-81028095D02*
X117207795Y-80980476D01*
X117207795Y-80980476D02*
X117112557Y-80932857D01*
X117112557Y-80932857D02*
X117064938Y-80885238D01*
X117064938Y-80885238D02*
X117017319Y-80790000D01*
X118017319Y-79504286D02*
X118017319Y-80075714D01*
X118017319Y-79790000D02*
X117017319Y-79790000D01*
X117017319Y-79790000D02*
X117160176Y-79885238D01*
X117160176Y-79885238D02*
X117255414Y-79980476D01*
X117255414Y-79980476D02*
X117303033Y-80075714D01*
X118017319Y-79170952D02*
X117350652Y-78647143D01*
X117350652Y-79170952D02*
X118017319Y-78647143D01*
X117017319Y-78075714D02*
X117017319Y-77980476D01*
X117017319Y-77980476D02*
X117064938Y-77885238D01*
X117064938Y-77885238D02*
X117112557Y-77837619D01*
X117112557Y-77837619D02*
X117207795Y-77790000D01*
X117207795Y-77790000D02*
X117398271Y-77742381D01*
X117398271Y-77742381D02*
X117636366Y-77742381D01*
X117636366Y-77742381D02*
X117826842Y-77790000D01*
X117826842Y-77790000D02*
X117922080Y-77837619D01*
X117922080Y-77837619D02*
X117969700Y-77885238D01*
X117969700Y-77885238D02*
X118017319Y-77980476D01*
X118017319Y-77980476D02*
X118017319Y-78075714D01*
X118017319Y-78075714D02*
X117969700Y-78170952D01*
X117969700Y-78170952D02*
X117922080Y-78218571D01*
X117922080Y-78218571D02*
X117826842Y-78266190D01*
X117826842Y-78266190D02*
X117636366Y-78313809D01*
X117636366Y-78313809D02*
X117398271Y-78313809D01*
X117398271Y-78313809D02*
X117207795Y-78266190D01*
X117207795Y-78266190D02*
X117112557Y-78218571D01*
X117112557Y-78218571D02*
X117064938Y-78170952D01*
X117064938Y-78170952D02*
X117017319Y-78075714D01*
X117112557Y-77361428D02*
X117064938Y-77313809D01*
X117064938Y-77313809D02*
X117017319Y-77218571D01*
X117017319Y-77218571D02*
X117017319Y-76980476D01*
X117017319Y-76980476D02*
X117064938Y-76885238D01*
X117064938Y-76885238D02*
X117112557Y-76837619D01*
X117112557Y-76837619D02*
X117207795Y-76790000D01*
X117207795Y-76790000D02*
X117303033Y-76790000D01*
X117303033Y-76790000D02*
X117445890Y-76837619D01*
X117445890Y-76837619D02*
X118017319Y-77409047D01*
X118017319Y-77409047D02*
X118017319Y-76790000D01*
X118112557Y-76599524D02*
X118112557Y-75837619D01*
X117969700Y-75647142D02*
X118017319Y-75504285D01*
X118017319Y-75504285D02*
X118017319Y-75266190D01*
X118017319Y-75266190D02*
X117969700Y-75170952D01*
X117969700Y-75170952D02*
X117922080Y-75123333D01*
X117922080Y-75123333D02*
X117826842Y-75075714D01*
X117826842Y-75075714D02*
X117731604Y-75075714D01*
X117731604Y-75075714D02*
X117636366Y-75123333D01*
X117636366Y-75123333D02*
X117588747Y-75170952D01*
X117588747Y-75170952D02*
X117541128Y-75266190D01*
X117541128Y-75266190D02*
X117493509Y-75456666D01*
X117493509Y-75456666D02*
X117445890Y-75551904D01*
X117445890Y-75551904D02*
X117398271Y-75599523D01*
X117398271Y-75599523D02*
X117303033Y-75647142D01*
X117303033Y-75647142D02*
X117207795Y-75647142D01*
X117207795Y-75647142D02*
X117112557Y-75599523D01*
X117112557Y-75599523D02*
X117064938Y-75551904D01*
X117064938Y-75551904D02*
X117017319Y-75456666D01*
X117017319Y-75456666D02*
X117017319Y-75218571D01*
X117017319Y-75218571D02*
X117064938Y-75075714D01*
X118017319Y-74504285D02*
X117969700Y-74599523D01*
X117969700Y-74599523D02*
X117922080Y-74647142D01*
X117922080Y-74647142D02*
X117826842Y-74694761D01*
X117826842Y-74694761D02*
X117541128Y-74694761D01*
X117541128Y-74694761D02*
X117445890Y-74647142D01*
X117445890Y-74647142D02*
X117398271Y-74599523D01*
X117398271Y-74599523D02*
X117350652Y-74504285D01*
X117350652Y-74504285D02*
X117350652Y-74361428D01*
X117350652Y-74361428D02*
X117398271Y-74266190D01*
X117398271Y-74266190D02*
X117445890Y-74218571D01*
X117445890Y-74218571D02*
X117541128Y-74170952D01*
X117541128Y-74170952D02*
X117826842Y-74170952D01*
X117826842Y-74170952D02*
X117922080Y-74218571D01*
X117922080Y-74218571D02*
X117969700Y-74266190D01*
X117969700Y-74266190D02*
X118017319Y-74361428D01*
X118017319Y-74361428D02*
X118017319Y-74504285D01*
X117969700Y-73313809D02*
X118017319Y-73409047D01*
X118017319Y-73409047D02*
X118017319Y-73599523D01*
X118017319Y-73599523D02*
X117969700Y-73694761D01*
X117969700Y-73694761D02*
X117922080Y-73742380D01*
X117922080Y-73742380D02*
X117826842Y-73789999D01*
X117826842Y-73789999D02*
X117541128Y-73789999D01*
X117541128Y-73789999D02*
X117445890Y-73742380D01*
X117445890Y-73742380D02*
X117398271Y-73694761D01*
X117398271Y-73694761D02*
X117350652Y-73599523D01*
X117350652Y-73599523D02*
X117350652Y-73409047D01*
X117350652Y-73409047D02*
X117398271Y-73313809D01*
X118017319Y-72885237D02*
X117017319Y-72885237D01*
X117636366Y-72789999D02*
X118017319Y-72504285D01*
X117350652Y-72504285D02*
X117731604Y-72885237D01*
X117969700Y-71694761D02*
X118017319Y-71789999D01*
X118017319Y-71789999D02*
X118017319Y-71980475D01*
X118017319Y-71980475D02*
X117969700Y-72075713D01*
X117969700Y-72075713D02*
X117874461Y-72123332D01*
X117874461Y-72123332D02*
X117493509Y-72123332D01*
X117493509Y-72123332D02*
X117398271Y-72075713D01*
X117398271Y-72075713D02*
X117350652Y-71980475D01*
X117350652Y-71980475D02*
X117350652Y-71789999D01*
X117350652Y-71789999D02*
X117398271Y-71694761D01*
X117398271Y-71694761D02*
X117493509Y-71647142D01*
X117493509Y-71647142D02*
X117588747Y-71647142D01*
X117588747Y-71647142D02*
X117683985Y-72123332D01*
X117350652Y-71361427D02*
X117350652Y-70980475D01*
X117017319Y-71218570D02*
X117874461Y-71218570D01*
X117874461Y-71218570D02*
X117969700Y-71170951D01*
X117969700Y-71170951D02*
X118017319Y-71075713D01*
X118017319Y-71075713D02*
X118017319Y-70980475D01*
X111717319Y-78623333D02*
X112431604Y-78623333D01*
X112431604Y-78623333D02*
X112574461Y-78670952D01*
X112574461Y-78670952D02*
X112669700Y-78766190D01*
X112669700Y-78766190D02*
X112717319Y-78909047D01*
X112717319Y-78909047D02*
X112717319Y-79004285D01*
X112717319Y-77623333D02*
X112717319Y-78194761D01*
X112717319Y-77909047D02*
X111717319Y-77909047D01*
X111717319Y-77909047D02*
X111860176Y-78004285D01*
X111860176Y-78004285D02*
X111955414Y-78099523D01*
X111955414Y-78099523D02*
X112003033Y-78194761D01*
D12*
%TO.C,C2*%
X132970000Y-75970000D02*
X136170000Y-75970000D01*
X136170000Y-75970000D02*
X136170000Y-80470000D01*
X136170000Y-80470000D02*
X132970000Y-80470000D01*
X132970000Y-80470000D02*
X132970000Y-75970000D01*
%TO.C,C1*%
X118140000Y-76110000D02*
X121340000Y-76110000D01*
X121340000Y-76110000D02*
X121340000Y-80610000D01*
X121340000Y-80610000D02*
X118140000Y-80610000D01*
X118140000Y-80610000D02*
X118140000Y-76110000D01*
%TO.C,U2*%
X123760000Y-76370000D02*
X123760000Y-80070000D01*
X129460000Y-76370000D02*
X123760000Y-76370000D01*
X130460000Y-80070000D02*
X123760000Y-80070000D01*
X130460000Y-77370000D02*
X130460000Y-80070000D01*
X129460000Y-76370000D02*
X130460000Y-77370000D01*
%TO.C,J2*%
X141737107Y-76870000D02*
X141030000Y-77370000D01*
X141030000Y-80870000D02*
X141030000Y-75370000D01*
X138830000Y-81870000D02*
X138830000Y-80870000D01*
X141030000Y-76370000D02*
X141737107Y-76870000D01*
X138830000Y-80870000D02*
X141030000Y-80870000D01*
X141030000Y-75370000D02*
X138830000Y-75370000D01*
X147030000Y-74370000D02*
X147030000Y-81870000D01*
X147030000Y-81870000D02*
X138830000Y-81870000D01*
X138830000Y-74370000D02*
X147030000Y-74370000D01*
X138830000Y-75370000D02*
X138830000Y-74370000D01*
%TO.C,J1*%
X113455393Y-79540000D02*
X114162500Y-79040000D01*
X114162500Y-75540000D02*
X114162500Y-81040000D01*
X116362500Y-74540000D02*
X116362500Y-75540000D01*
X114162500Y-80040000D02*
X113455393Y-79540000D01*
X116362500Y-75540000D02*
X114162500Y-75540000D01*
X114162500Y-81040000D02*
X116362500Y-81040000D01*
X108162500Y-82040000D02*
X108162500Y-74540000D01*
X108162500Y-74540000D02*
X116362500Y-74540000D01*
X116362500Y-82040000D02*
X108162500Y-82040000D01*
X116362500Y-81040000D02*
X116362500Y-82040000D01*
%TD*%
M02*
