%TF.GenerationSoftware,KiCad,Pcbnew,7.0.9*%
%TF.CreationDate,2024-09-22T22:34:36+04:00*%
%TF.ProjectId,LDO_Module,4c444f5f-4d6f-4647-956c-652e6b696361,1*%
%TF.SameCoordinates,Original*%
%TF.FileFunction,Legend,Top*%
%TF.FilePolarity,Positive*%
%FSLAX46Y46*%
G04 Gerber Fmt 4.6, Leading zero omitted, Abs format (unit mm)*
G04 Created by KiCad (PCBNEW 7.0.9) date 2024-09-22 22:34:36*
%MOMM*%
%LPD*%
G01*
G04 APERTURE LIST*
%ADD10C,0.254000*%
%ADD11C,0.150000*%
%ADD12C,0.120000*%
G04 APERTURE END LIST*
D10*
X119345676Y-86692030D02*
X118393295Y-86692030D01*
X118393295Y-86692030D02*
X118393295Y-84692030D01*
X120012343Y-86692030D02*
X120012343Y-84692030D01*
X120012343Y-84692030D02*
X120488533Y-84692030D01*
X120488533Y-84692030D02*
X120774248Y-84787268D01*
X120774248Y-84787268D02*
X120964724Y-84977744D01*
X120964724Y-84977744D02*
X121059962Y-85168220D01*
X121059962Y-85168220D02*
X121155200Y-85549172D01*
X121155200Y-85549172D02*
X121155200Y-85834887D01*
X121155200Y-85834887D02*
X121059962Y-86215839D01*
X121059962Y-86215839D02*
X120964724Y-86406315D01*
X120964724Y-86406315D02*
X120774248Y-86596792D01*
X120774248Y-86596792D02*
X120488533Y-86692030D01*
X120488533Y-86692030D02*
X120012343Y-86692030D01*
X122393295Y-84692030D02*
X122774248Y-84692030D01*
X122774248Y-84692030D02*
X122964724Y-84787268D01*
X122964724Y-84787268D02*
X123155200Y-84977744D01*
X123155200Y-84977744D02*
X123250438Y-85358696D01*
X123250438Y-85358696D02*
X123250438Y-86025363D01*
X123250438Y-86025363D02*
X123155200Y-86406315D01*
X123155200Y-86406315D02*
X122964724Y-86596792D01*
X122964724Y-86596792D02*
X122774248Y-86692030D01*
X122774248Y-86692030D02*
X122393295Y-86692030D01*
X122393295Y-86692030D02*
X122202819Y-86596792D01*
X122202819Y-86596792D02*
X122012343Y-86406315D01*
X122012343Y-86406315D02*
X121917105Y-86025363D01*
X121917105Y-86025363D02*
X121917105Y-85358696D01*
X121917105Y-85358696D02*
X122012343Y-84977744D01*
X122012343Y-84977744D02*
X122202819Y-84787268D01*
X122202819Y-84787268D02*
X122393295Y-84692030D01*
X125631391Y-86692030D02*
X125631391Y-84692030D01*
X125631391Y-84692030D02*
X126298058Y-86120601D01*
X126298058Y-86120601D02*
X126964724Y-84692030D01*
X126964724Y-84692030D02*
X126964724Y-86692030D01*
X128298057Y-84692030D02*
X128679010Y-84692030D01*
X128679010Y-84692030D02*
X128869486Y-84787268D01*
X128869486Y-84787268D02*
X129059962Y-84977744D01*
X129059962Y-84977744D02*
X129155200Y-85358696D01*
X129155200Y-85358696D02*
X129155200Y-86025363D01*
X129155200Y-86025363D02*
X129059962Y-86406315D01*
X129059962Y-86406315D02*
X128869486Y-86596792D01*
X128869486Y-86596792D02*
X128679010Y-86692030D01*
X128679010Y-86692030D02*
X128298057Y-86692030D01*
X128298057Y-86692030D02*
X128107581Y-86596792D01*
X128107581Y-86596792D02*
X127917105Y-86406315D01*
X127917105Y-86406315D02*
X127821867Y-86025363D01*
X127821867Y-86025363D02*
X127821867Y-85358696D01*
X127821867Y-85358696D02*
X127917105Y-84977744D01*
X127917105Y-84977744D02*
X128107581Y-84787268D01*
X128107581Y-84787268D02*
X128298057Y-84692030D01*
X130012343Y-86692030D02*
X130012343Y-84692030D01*
X130012343Y-84692030D02*
X130488533Y-84692030D01*
X130488533Y-84692030D02*
X130774248Y-84787268D01*
X130774248Y-84787268D02*
X130964724Y-84977744D01*
X130964724Y-84977744D02*
X131059962Y-85168220D01*
X131059962Y-85168220D02*
X131155200Y-85549172D01*
X131155200Y-85549172D02*
X131155200Y-85834887D01*
X131155200Y-85834887D02*
X131059962Y-86215839D01*
X131059962Y-86215839D02*
X130964724Y-86406315D01*
X130964724Y-86406315D02*
X130774248Y-86596792D01*
X130774248Y-86596792D02*
X130488533Y-86692030D01*
X130488533Y-86692030D02*
X130012343Y-86692030D01*
X132012343Y-84692030D02*
X132012343Y-86311077D01*
X132012343Y-86311077D02*
X132107581Y-86501553D01*
X132107581Y-86501553D02*
X132202819Y-86596792D01*
X132202819Y-86596792D02*
X132393295Y-86692030D01*
X132393295Y-86692030D02*
X132774248Y-86692030D01*
X132774248Y-86692030D02*
X132964724Y-86596792D01*
X132964724Y-86596792D02*
X133059962Y-86501553D01*
X133059962Y-86501553D02*
X133155200Y-86311077D01*
X133155200Y-86311077D02*
X133155200Y-84692030D01*
X135059962Y-86692030D02*
X134107581Y-86692030D01*
X134107581Y-86692030D02*
X134107581Y-84692030D01*
X135726629Y-85644411D02*
X136393296Y-85644411D01*
X136679010Y-86692030D02*
X135726629Y-86692030D01*
X135726629Y-86692030D02*
X135726629Y-84692030D01*
X135726629Y-84692030D02*
X136679010Y-84692030D01*
D11*
X104770588Y-79227438D02*
X104675350Y-79179819D01*
X104675350Y-79179819D02*
X104532493Y-79179819D01*
X104532493Y-79179819D02*
X104389636Y-79227438D01*
X104389636Y-79227438D02*
X104294398Y-79322676D01*
X104294398Y-79322676D02*
X104246779Y-79417914D01*
X104246779Y-79417914D02*
X104199160Y-79608390D01*
X104199160Y-79608390D02*
X104199160Y-79751247D01*
X104199160Y-79751247D02*
X104246779Y-79941723D01*
X104246779Y-79941723D02*
X104294398Y-80036961D01*
X104294398Y-80036961D02*
X104389636Y-80132200D01*
X104389636Y-80132200D02*
X104532493Y-80179819D01*
X104532493Y-80179819D02*
X104627731Y-80179819D01*
X104627731Y-80179819D02*
X104770588Y-80132200D01*
X104770588Y-80132200D02*
X104818207Y-80084580D01*
X104818207Y-80084580D02*
X104818207Y-79751247D01*
X104818207Y-79751247D02*
X104627731Y-79751247D01*
X105246779Y-80179819D02*
X105246779Y-79179819D01*
X105246779Y-79179819D02*
X105818207Y-80179819D01*
X105818207Y-80179819D02*
X105818207Y-79179819D01*
X106294398Y-80179819D02*
X106294398Y-79179819D01*
X106294398Y-79179819D02*
X106532493Y-79179819D01*
X106532493Y-79179819D02*
X106675350Y-79227438D01*
X106675350Y-79227438D02*
X106770588Y-79322676D01*
X106770588Y-79322676D02*
X106818207Y-79417914D01*
X106818207Y-79417914D02*
X106865826Y-79608390D01*
X106865826Y-79608390D02*
X106865826Y-79751247D01*
X106865826Y-79751247D02*
X106818207Y-79941723D01*
X106818207Y-79941723D02*
X106770588Y-80036961D01*
X106770588Y-80036961D02*
X106675350Y-80132200D01*
X106675350Y-80132200D02*
X106532493Y-80179819D01*
X106532493Y-80179819D02*
X106294398Y-80179819D01*
X105030588Y-77679819D02*
X104459160Y-77679819D01*
X104744874Y-77679819D02*
X104744874Y-76679819D01*
X104744874Y-76679819D02*
X104649636Y-76822676D01*
X104649636Y-76822676D02*
X104554398Y-76917914D01*
X104554398Y-76917914D02*
X104459160Y-76965533D01*
X105935350Y-76679819D02*
X105459160Y-76679819D01*
X105459160Y-76679819D02*
X105411541Y-77156009D01*
X105411541Y-77156009D02*
X105459160Y-77108390D01*
X105459160Y-77108390D02*
X105554398Y-77060771D01*
X105554398Y-77060771D02*
X105792493Y-77060771D01*
X105792493Y-77060771D02*
X105887731Y-77108390D01*
X105887731Y-77108390D02*
X105935350Y-77156009D01*
X105935350Y-77156009D02*
X105982969Y-77251247D01*
X105982969Y-77251247D02*
X105982969Y-77489342D01*
X105982969Y-77489342D02*
X105935350Y-77584580D01*
X105935350Y-77584580D02*
X105887731Y-77632200D01*
X105887731Y-77632200D02*
X105792493Y-77679819D01*
X105792493Y-77679819D02*
X105554398Y-77679819D01*
X105554398Y-77679819D02*
X105459160Y-77632200D01*
X105459160Y-77632200D02*
X105411541Y-77584580D01*
X106268684Y-76679819D02*
X106602017Y-77679819D01*
X106602017Y-77679819D02*
X106935350Y-76679819D01*
X148720588Y-78767438D02*
X148625350Y-78719819D01*
X148625350Y-78719819D02*
X148482493Y-78719819D01*
X148482493Y-78719819D02*
X148339636Y-78767438D01*
X148339636Y-78767438D02*
X148244398Y-78862676D01*
X148244398Y-78862676D02*
X148196779Y-78957914D01*
X148196779Y-78957914D02*
X148149160Y-79148390D01*
X148149160Y-79148390D02*
X148149160Y-79291247D01*
X148149160Y-79291247D02*
X148196779Y-79481723D01*
X148196779Y-79481723D02*
X148244398Y-79576961D01*
X148244398Y-79576961D02*
X148339636Y-79672200D01*
X148339636Y-79672200D02*
X148482493Y-79719819D01*
X148482493Y-79719819D02*
X148577731Y-79719819D01*
X148577731Y-79719819D02*
X148720588Y-79672200D01*
X148720588Y-79672200D02*
X148768207Y-79624580D01*
X148768207Y-79624580D02*
X148768207Y-79291247D01*
X148768207Y-79291247D02*
X148577731Y-79291247D01*
X149196779Y-79719819D02*
X149196779Y-78719819D01*
X149196779Y-78719819D02*
X149768207Y-79719819D01*
X149768207Y-79719819D02*
X149768207Y-78719819D01*
X150244398Y-79719819D02*
X150244398Y-78719819D01*
X150244398Y-78719819D02*
X150482493Y-78719819D01*
X150482493Y-78719819D02*
X150625350Y-78767438D01*
X150625350Y-78767438D02*
X150720588Y-78862676D01*
X150720588Y-78862676D02*
X150768207Y-78957914D01*
X150768207Y-78957914D02*
X150815826Y-79148390D01*
X150815826Y-79148390D02*
X150815826Y-79291247D01*
X150815826Y-79291247D02*
X150768207Y-79481723D01*
X150768207Y-79481723D02*
X150720588Y-79576961D01*
X150720588Y-79576961D02*
X150625350Y-79672200D01*
X150625350Y-79672200D02*
X150482493Y-79719819D01*
X150482493Y-79719819D02*
X150244398Y-79719819D01*
X148171541Y-76329819D02*
X148790588Y-76329819D01*
X148790588Y-76329819D02*
X148457255Y-76710771D01*
X148457255Y-76710771D02*
X148600112Y-76710771D01*
X148600112Y-76710771D02*
X148695350Y-76758390D01*
X148695350Y-76758390D02*
X148742969Y-76806009D01*
X148742969Y-76806009D02*
X148790588Y-76901247D01*
X148790588Y-76901247D02*
X148790588Y-77139342D01*
X148790588Y-77139342D02*
X148742969Y-77234580D01*
X148742969Y-77234580D02*
X148695350Y-77282200D01*
X148695350Y-77282200D02*
X148600112Y-77329819D01*
X148600112Y-77329819D02*
X148314398Y-77329819D01*
X148314398Y-77329819D02*
X148219160Y-77282200D01*
X148219160Y-77282200D02*
X148171541Y-77234580D01*
X149076303Y-76329819D02*
X149409636Y-77329819D01*
X149409636Y-77329819D02*
X149742969Y-76329819D01*
X149981065Y-76329819D02*
X150600112Y-76329819D01*
X150600112Y-76329819D02*
X150266779Y-76710771D01*
X150266779Y-76710771D02*
X150409636Y-76710771D01*
X150409636Y-76710771D02*
X150504874Y-76758390D01*
X150504874Y-76758390D02*
X150552493Y-76806009D01*
X150552493Y-76806009D02*
X150600112Y-76901247D01*
X150600112Y-76901247D02*
X150600112Y-77139342D01*
X150600112Y-77139342D02*
X150552493Y-77234580D01*
X150552493Y-77234580D02*
X150504874Y-77282200D01*
X150504874Y-77282200D02*
X150409636Y-77329819D01*
X150409636Y-77329819D02*
X150123922Y-77329819D01*
X150123922Y-77329819D02*
X150028684Y-77282200D01*
X150028684Y-77282200D02*
X149981065Y-77234580D01*
X134053333Y-73739580D02*
X134005714Y-73787200D01*
X134005714Y-73787200D02*
X133862857Y-73834819D01*
X133862857Y-73834819D02*
X133767619Y-73834819D01*
X133767619Y-73834819D02*
X133624762Y-73787200D01*
X133624762Y-73787200D02*
X133529524Y-73691961D01*
X133529524Y-73691961D02*
X133481905Y-73596723D01*
X133481905Y-73596723D02*
X133434286Y-73406247D01*
X133434286Y-73406247D02*
X133434286Y-73263390D01*
X133434286Y-73263390D02*
X133481905Y-73072914D01*
X133481905Y-73072914D02*
X133529524Y-72977676D01*
X133529524Y-72977676D02*
X133624762Y-72882438D01*
X133624762Y-72882438D02*
X133767619Y-72834819D01*
X133767619Y-72834819D02*
X133862857Y-72834819D01*
X133862857Y-72834819D02*
X134005714Y-72882438D01*
X134005714Y-72882438D02*
X134053333Y-72930057D01*
X134434286Y-72930057D02*
X134481905Y-72882438D01*
X134481905Y-72882438D02*
X134577143Y-72834819D01*
X134577143Y-72834819D02*
X134815238Y-72834819D01*
X134815238Y-72834819D02*
X134910476Y-72882438D01*
X134910476Y-72882438D02*
X134958095Y-72930057D01*
X134958095Y-72930057D02*
X135005714Y-73025295D01*
X135005714Y-73025295D02*
X135005714Y-73120533D01*
X135005714Y-73120533D02*
X134958095Y-73263390D01*
X134958095Y-73263390D02*
X134386667Y-73834819D01*
X134386667Y-73834819D02*
X135005714Y-73834819D01*
X119593333Y-73909580D02*
X119545714Y-73957200D01*
X119545714Y-73957200D02*
X119402857Y-74004819D01*
X119402857Y-74004819D02*
X119307619Y-74004819D01*
X119307619Y-74004819D02*
X119164762Y-73957200D01*
X119164762Y-73957200D02*
X119069524Y-73861961D01*
X119069524Y-73861961D02*
X119021905Y-73766723D01*
X119021905Y-73766723D02*
X118974286Y-73576247D01*
X118974286Y-73576247D02*
X118974286Y-73433390D01*
X118974286Y-73433390D02*
X119021905Y-73242914D01*
X119021905Y-73242914D02*
X119069524Y-73147676D01*
X119069524Y-73147676D02*
X119164762Y-73052438D01*
X119164762Y-73052438D02*
X119307619Y-73004819D01*
X119307619Y-73004819D02*
X119402857Y-73004819D01*
X119402857Y-73004819D02*
X119545714Y-73052438D01*
X119545714Y-73052438D02*
X119593333Y-73100057D01*
X120545714Y-74004819D02*
X119974286Y-74004819D01*
X120260000Y-74004819D02*
X120260000Y-73004819D01*
X120260000Y-73004819D02*
X120164762Y-73147676D01*
X120164762Y-73147676D02*
X120069524Y-73242914D01*
X120069524Y-73242914D02*
X119974286Y-73290533D01*
X125838095Y-71214819D02*
X125838095Y-72024342D01*
X125838095Y-72024342D02*
X125885714Y-72119580D01*
X125885714Y-72119580D02*
X125933333Y-72167200D01*
X125933333Y-72167200D02*
X126028571Y-72214819D01*
X126028571Y-72214819D02*
X126219047Y-72214819D01*
X126219047Y-72214819D02*
X126314285Y-72167200D01*
X126314285Y-72167200D02*
X126361904Y-72119580D01*
X126361904Y-72119580D02*
X126409523Y-72024342D01*
X126409523Y-72024342D02*
X126409523Y-71214819D01*
X126838095Y-71310057D02*
X126885714Y-71262438D01*
X126885714Y-71262438D02*
X126980952Y-71214819D01*
X126980952Y-71214819D02*
X127219047Y-71214819D01*
X127219047Y-71214819D02*
X127314285Y-71262438D01*
X127314285Y-71262438D02*
X127361904Y-71310057D01*
X127361904Y-71310057D02*
X127409523Y-71405295D01*
X127409523Y-71405295D02*
X127409523Y-71500533D01*
X127409523Y-71500533D02*
X127361904Y-71643390D01*
X127361904Y-71643390D02*
X126790476Y-72214819D01*
X126790476Y-72214819D02*
X127409523Y-72214819D01*
X142706666Y-72324819D02*
X142706666Y-73039104D01*
X142706666Y-73039104D02*
X142659047Y-73181961D01*
X142659047Y-73181961D02*
X142563809Y-73277200D01*
X142563809Y-73277200D02*
X142420952Y-73324819D01*
X142420952Y-73324819D02*
X142325714Y-73324819D01*
X143135238Y-72420057D02*
X143182857Y-72372438D01*
X143182857Y-72372438D02*
X143278095Y-72324819D01*
X143278095Y-72324819D02*
X143516190Y-72324819D01*
X143516190Y-72324819D02*
X143611428Y-72372438D01*
X143611428Y-72372438D02*
X143659047Y-72420057D01*
X143659047Y-72420057D02*
X143706666Y-72515295D01*
X143706666Y-72515295D02*
X143706666Y-72610533D01*
X143706666Y-72610533D02*
X143659047Y-72753390D01*
X143659047Y-72753390D02*
X143087619Y-73324819D01*
X143087619Y-73324819D02*
X143706666Y-73324819D01*
X111756666Y-72374819D02*
X111756666Y-73089104D01*
X111756666Y-73089104D02*
X111709047Y-73231961D01*
X111709047Y-73231961D02*
X111613809Y-73327200D01*
X111613809Y-73327200D02*
X111470952Y-73374819D01*
X111470952Y-73374819D02*
X111375714Y-73374819D01*
X112756666Y-73374819D02*
X112185238Y-73374819D01*
X112470952Y-73374819D02*
X112470952Y-72374819D01*
X112470952Y-72374819D02*
X112375714Y-72517676D01*
X112375714Y-72517676D02*
X112280476Y-72612914D01*
X112280476Y-72612914D02*
X112185238Y-72660533D01*
D12*
%TO.C,C2*%
X136280000Y-77058748D02*
X136280000Y-79381252D01*
X132860000Y-77058748D02*
X132860000Y-79381252D01*
%TO.C,C1*%
X121450000Y-77198748D02*
X121450000Y-79521252D01*
X118030000Y-77198748D02*
X118030000Y-79521252D01*
%TO.C,U2*%
X130520000Y-74120000D02*
X130520000Y-80130000D01*
X123700000Y-76370000D02*
X123700000Y-80130000D01*
X123700000Y-80130000D02*
X124960000Y-80130000D01*
X130520000Y-80130000D02*
X129260000Y-80130000D01*
%TO.C,J2*%
X145340000Y-79690000D02*
X141920000Y-79690000D01*
X145920000Y-80760000D02*
X140920000Y-80760000D01*
X141920000Y-75480000D02*
X141920000Y-80760000D01*
X138720000Y-80760000D02*
X140920000Y-80760000D01*
X145420000Y-79370000D02*
X145340000Y-79690000D01*
X141920000Y-79690000D02*
X141920000Y-79370000D01*
X140920000Y-78040000D02*
X140920000Y-78200000D01*
X138830000Y-76870000D02*
X138230000Y-76570000D01*
X147140000Y-81980000D02*
X138720000Y-81980000D01*
X145920000Y-75480000D02*
X140920000Y-75480000D01*
X145920000Y-74260000D02*
X145920000Y-75480000D01*
X141920000Y-76870000D02*
X141920000Y-76550000D01*
X138230000Y-76570000D02*
X138230000Y-77170000D01*
X141920000Y-76550000D02*
X145340000Y-76550000D01*
X138230000Y-77170000D02*
X138830000Y-76870000D01*
X145420000Y-76870000D02*
X145340000Y-77190000D01*
X138720000Y-75480000D02*
X138720000Y-74260000D01*
X141920000Y-79370000D02*
X141920000Y-79050000D01*
X138720000Y-81980000D02*
X138720000Y-80760000D01*
X147140000Y-74260000D02*
X147140000Y-81980000D01*
X145340000Y-79050000D02*
X145420000Y-79370000D01*
X145340000Y-76550000D02*
X145420000Y-76870000D01*
X138720000Y-74260000D02*
X147140000Y-74260000D01*
X141920000Y-77190000D02*
X141920000Y-76870000D01*
X140920000Y-80760000D02*
X140920000Y-81980000D01*
X140920000Y-75480000D02*
X140920000Y-74260000D01*
X145340000Y-77190000D02*
X141920000Y-77190000D01*
X145920000Y-81980000D02*
X145920000Y-80760000D01*
X140920000Y-75480000D02*
X138720000Y-75480000D01*
X141920000Y-79050000D02*
X145340000Y-79050000D01*
%TO.C,J1*%
X109852500Y-76720000D02*
X113272500Y-76720000D01*
X109272500Y-75650000D02*
X114272500Y-75650000D01*
X113272500Y-80930000D02*
X113272500Y-75650000D01*
X116472500Y-75650000D02*
X114272500Y-75650000D01*
X109772500Y-77040000D02*
X109852500Y-76720000D01*
X113272500Y-76720000D02*
X113272500Y-77040000D01*
X114272500Y-78370000D02*
X114272500Y-78210000D01*
X116362500Y-79540000D02*
X116962500Y-79840000D01*
X108052500Y-74430000D02*
X116472500Y-74430000D01*
X109272500Y-80930000D02*
X114272500Y-80930000D01*
X109272500Y-82150000D02*
X109272500Y-80930000D01*
X113272500Y-79540000D02*
X113272500Y-79860000D01*
X116962500Y-79840000D02*
X116962500Y-79240000D01*
X113272500Y-79860000D02*
X109852500Y-79860000D01*
X116962500Y-79240000D02*
X116362500Y-79540000D01*
X109772500Y-79540000D02*
X109852500Y-79220000D01*
X116472500Y-80930000D02*
X116472500Y-82150000D01*
X113272500Y-77040000D02*
X113272500Y-77360000D01*
X116472500Y-74430000D02*
X116472500Y-75650000D01*
X108052500Y-82150000D02*
X108052500Y-74430000D01*
X109852500Y-77360000D02*
X109772500Y-77040000D01*
X109852500Y-79860000D02*
X109772500Y-79540000D01*
X116472500Y-82150000D02*
X108052500Y-82150000D01*
X113272500Y-79220000D02*
X113272500Y-79540000D01*
X114272500Y-75650000D02*
X114272500Y-74430000D01*
X114272500Y-80930000D02*
X114272500Y-82150000D01*
X109852500Y-79220000D02*
X113272500Y-79220000D01*
X109272500Y-74430000D02*
X109272500Y-75650000D01*
X114272500Y-80930000D02*
X116472500Y-80930000D01*
X113272500Y-77360000D02*
X109852500Y-77360000D01*
%TD*%
M02*
