%TF.GenerationSoftware,KiCad,Pcbnew,7.0.9*%
%TF.CreationDate,2024-09-22T22:34:37+04:00*%
%TF.ProjectId,LDO_Module,4c444f5f-4d6f-4647-956c-652e6b696361,1*%
%TF.SameCoordinates,Original*%
%TF.FileFunction,Other,User*%
%FSLAX46Y46*%
G04 Gerber Fmt 4.6, Leading zero omitted, Abs format (unit mm)*
G04 Created by KiCad (PCBNEW 7.0.9) date 2024-09-22 22:34:37*
%MOMM*%
%LPD*%
G01*
G04 APERTURE LIST*
%ADD10C,0.050000*%
G04 APERTURE END LIST*
D10*
%TO.C,C2*%
X136520000Y-81220000D02*
X132620000Y-81220000D01*
X132620000Y-75220000D02*
X136520000Y-75220000D01*
X136520000Y-75220000D02*
X136520000Y-81220000D01*
X132620000Y-81220000D02*
X132620000Y-75220000D01*
%TO.C,C1*%
X121690000Y-81360000D02*
X117790000Y-81360000D01*
X117790000Y-75360000D02*
X121690000Y-75360000D01*
X121690000Y-75360000D02*
X121690000Y-81360000D01*
X117790000Y-81360000D02*
X117790000Y-75360000D01*
%TO.C,U2*%
X123510000Y-82620000D02*
X130710000Y-82620000D01*
X130710000Y-73820000D02*
X123510000Y-73820000D01*
X130710000Y-82620000D02*
X130710000Y-73820000D01*
X123510000Y-73820000D02*
X123510000Y-82620000D01*
%TO.C,J2*%
X138330000Y-82370000D02*
X147530000Y-82370000D01*
X147530000Y-73870000D02*
X138330000Y-73870000D01*
X147530000Y-82370000D02*
X147530000Y-73870000D01*
X138330000Y-73870000D02*
X138330000Y-82370000D01*
%TO.C,J1*%
X116862500Y-74040000D02*
X107662500Y-74040000D01*
X107662500Y-82540000D02*
X116862500Y-82540000D01*
X107662500Y-74040000D02*
X107662500Y-82540000D01*
X116862500Y-82540000D02*
X116862500Y-74040000D01*
%TD*%
M02*
